<mxfile host="app.diagrams.net" modified="2020-12-31T13:54:27.712Z" agent="5.0 (Windows NT 10.0; Win64; x64) AppleWebKit/537.36 (KHTML, like Gecko) Chrome/87.0.4280.66 Safari/537.36" etag="IBH8Z939h8xSn6lOAW_q" version="14.1.4" type="github">
  <diagram id="2f404044-711c-603c-8f00-f6bb4c023d3c" name="Page-1">
    <mxGraphModel dx="1751" dy="1623" grid="1" gridSize="10" guides="1" tooltips="1" connect="1" arrows="1" fold="1" page="1" pageScale="1" pageWidth="1169" pageHeight="827" background="#ffffff" math="0" shadow="0">
      <root>
        <mxCell id="0" />
        <mxCell id="1" parent="0" />
        <mxCell id="cr33_lq19UA9OvymUHb6-99" value="" style="group" vertex="1" connectable="0" parent="1">
          <mxGeometry x="620" y="300" width="117.5" height="120" as="geometry" />
        </mxCell>
        <mxCell id="cr33_lq19UA9OvymUHb6-96" value="" style="aspect=fixed;perimeter=ellipsePerimeter;html=1;align=center;shadow=0;dashed=0;fontColor=#4277BB;labelBackgroundColor=#ffffff;fontSize=12;spacingTop=3;image;image=img/lib/ibm/infrastructure/transformation_connectivity.svg;" vertex="1" parent="cr33_lq19UA9OvymUHb6-99">
          <mxGeometry y="30" width="60" height="60" as="geometry" />
        </mxCell>
        <mxCell id="cr33_lq19UA9OvymUHb6-97" value="spark?" style="text;html=1;align=center;verticalAlign=middle;resizable=0;points=[];autosize=1;" vertex="1" parent="cr33_lq19UA9OvymUHb6-99">
          <mxGeometry x="5" width="50" height="20" as="geometry" />
        </mxCell>
        <mxCell id="cr33_lq19UA9OvymUHb6-81" value="Airflow" style="shape=mxgraph.ibm.box;prType=classic;fontStyle=0;verticalAlign=top;align=left;spacingLeft=32;spacingTop=4;fillColor=none;rounded=0;whiteSpace=wrap;html=1;strokeColor=#4376BB;strokeWidth=2;dashed=0;container=1;spacing=-4;collapsible=0;expand=0;recursiveResize=0;" vertex="1" parent="cr33_lq19UA9OvymUHb6-99">
          <mxGeometry x="-57.5" y="-30" width="175" height="150" as="geometry" />
        </mxCell>
        <mxCell id="cr33_lq19UA9OvymUHb6-108" value="Daily" style="fontStyle=0;verticalAlign=top;align=center;spacingTop=-2;fillColor=none;rounded=0;whiteSpace=wrap;html=1;strokeColor=#00882B;strokeWidth=2;dashed=1;container=1;collapsible=0;expand=0;recursiveResize=0;" vertex="1" parent="cr33_lq19UA9OvymUHb6-81">
          <mxGeometry x="-432.5" y="-50" width="632.5" height="240" as="geometry" />
        </mxCell>
        <mxCell id="cr33_lq19UA9OvymUHb6-82" value="" style="group" vertex="1" connectable="0" parent="cr33_lq19UA9OvymUHb6-108">
          <mxGeometry x="170" y="80" width="80" height="90" as="geometry" />
        </mxCell>
        <mxCell id="cr33_lq19UA9OvymUHb6-75" value="" style="aspect=fixed;perimeter=ellipsePerimeter;html=1;align=center;shadow=0;dashed=0;fontColor=#4277BB;labelBackgroundColor=#ffffff;fontSize=12;spacingTop=3;image;image=img/lib/ibm/vpc/InternetServices2.svg;" vertex="1" parent="cr33_lq19UA9OvymUHb6-82">
          <mxGeometry x="10" y="30" width="60" height="60" as="geometry" />
        </mxCell>
        <mxCell id="cr33_lq19UA9OvymUHb6-76" value="http-server" style="text;html=1;align=center;verticalAlign=middle;resizable=0;points=[];autosize=1;" vertex="1" parent="cr33_lq19UA9OvymUHb6-82">
          <mxGeometry x="5" width="70" height="20" as="geometry" />
        </mxCell>
        <mxCell id="cr33_lq19UA9OvymUHb6-83" value="" style="group" vertex="1" connectable="0" parent="cr33_lq19UA9OvymUHb6-108">
          <mxGeometry x="310" y="80" width="60" height="90" as="geometry" />
        </mxCell>
        <mxCell id="cr33_lq19UA9OvymUHb6-78" value="" style="aspect=fixed;perimeter=ellipsePerimeter;html=1;align=center;shadow=0;dashed=0;fontColor=#4277BB;labelBackgroundColor=#ffffff;fontSize=12;spacingTop=3;image;image=img/lib/ibm/vpc/LoadBalancerPool.svg;" vertex="1" parent="cr33_lq19UA9OvymUHb6-83">
          <mxGeometry y="30" width="60" height="60" as="geometry" />
        </mxCell>
        <mxCell id="cr33_lq19UA9OvymUHb6-79" value="kafka" style="text;html=1;align=center;verticalAlign=middle;resizable=0;points=[];autosize=1;" vertex="1" parent="cr33_lq19UA9OvymUHb6-83">
          <mxGeometry x="10" width="40" height="20" as="geometry" />
        </mxCell>
        <mxCell id="cr33_lq19UA9OvymUHb6-98" value="" style="html=1;labelBackgroundColor=#ffffff;endArrow=classic;endFill=1;endSize=6;jettySize=auto;orthogonalLoop=1;strokeWidth=1;fontSize=14;exitX=1;exitY=0.5;exitDx=0;exitDy=0;" edge="1" parent="cr33_lq19UA9OvymUHb6-99" source="cr33_lq19UA9OvymUHb6-78" target="cr33_lq19UA9OvymUHb6-96">
          <mxGeometry width="60" height="60" relative="1" as="geometry">
            <mxPoint x="-20" y="-10" as="sourcePoint" />
            <mxPoint x="40" y="-70" as="targetPoint" />
          </mxGeometry>
        </mxCell>
        <mxCell id="cr33_lq19UA9OvymUHb6-86" value="Airflow" style="shape=mxgraph.ibm.box;prType=classic;fontStyle=0;verticalAlign=top;align=left;spacingLeft=32;spacingTop=4;fillColor=none;rounded=0;whiteSpace=wrap;html=1;strokeColor=#4376BB;strokeWidth=2;dashed=0;container=0;spacing=-4;collapsible=0;expand=0;recursiveResize=0;" vertex="1" parent="1">
          <mxGeometry x="220" width="520" height="150" as="geometry" />
        </mxCell>
        <mxCell id="cr33_lq19UA9OvymUHb6-107" value="Archive" style="fontStyle=0;verticalAlign=top;align=center;spacingTop=-2;fillColor=none;rounded=0;whiteSpace=wrap;html=1;strokeColor=#00882B;strokeWidth=2;dashed=1;container=1;collapsible=0;expand=0;recursiveResize=0;" vertex="1" parent="1">
          <mxGeometry x="130" y="-60" width="630" height="240" as="geometry" />
        </mxCell>
        <mxCell id="cr33_lq19UA9OvymUHb6-109" value="" style="group" vertex="1" connectable="0" parent="cr33_lq19UA9OvymUHb6-107">
          <mxGeometry x="300" y="90" width="60" height="90" as="geometry" />
        </mxCell>
        <mxCell id="cr33_lq19UA9OvymUHb6-92" value="" style="aspect=fixed;perimeter=ellipsePerimeter;html=1;align=center;shadow=0;dashed=0;fontColor=#4277BB;labelBackgroundColor=#ffffff;fontSize=12;spacingTop=3;image;image=img/lib/ibm/vpc/LoadBalancerPool.svg;" vertex="1" parent="cr33_lq19UA9OvymUHb6-109">
          <mxGeometry y="30" width="60" height="60" as="geometry" />
        </mxCell>
        <mxCell id="cr33_lq19UA9OvymUHb6-93" value="kafka" style="text;html=1;align=center;verticalAlign=middle;resizable=0;points=[];autosize=1;" vertex="1" parent="cr33_lq19UA9OvymUHb6-109">
          <mxGeometry x="10" width="40" height="20" as="geometry" />
        </mxCell>
        <mxCell id="cr33_lq19UA9OvymUHb6-87" value="" style="group" vertex="1" connectable="0" parent="cr33_lq19UA9OvymUHb6-107">
          <mxGeometry x="110" y="90" width="80" height="90" as="geometry" />
        </mxCell>
        <mxCell id="cr33_lq19UA9OvymUHb6-88" value="" style="aspect=fixed;perimeter=ellipsePerimeter;html=1;align=center;shadow=0;dashed=0;fontColor=#4277BB;labelBackgroundColor=#ffffff;fontSize=12;spacingTop=3;image;image=img/lib/ibm/vpc/InternetServices2.svg;" vertex="1" parent="cr33_lq19UA9OvymUHb6-87">
          <mxGeometry x="10" y="30" width="60" height="60" as="geometry" />
        </mxCell>
        <mxCell id="cr33_lq19UA9OvymUHb6-89" value="scraper" style="text;html=1;align=center;verticalAlign=middle;resizable=0;points=[];autosize=1;" vertex="1" parent="cr33_lq19UA9OvymUHb6-87">
          <mxGeometry x="10" width="60" height="20" as="geometry" />
        </mxCell>
        <mxCell id="cr33_lq19UA9OvymUHb6-90" value="" style="html=1;labelBackgroundColor=#ffffff;endArrow=classic;endFill=1;endSize=6;jettySize=auto;orthogonalLoop=1;strokeWidth=1;fontSize=14;exitX=1;exitY=0.5;exitDx=0;exitDy=0;entryX=0;entryY=0.5;entryDx=0;entryDy=0;" edge="1" parent="cr33_lq19UA9OvymUHb6-107" source="cr33_lq19UA9OvymUHb6-88" target="cr33_lq19UA9OvymUHb6-92">
          <mxGeometry width="60" height="60" relative="1" as="geometry">
            <mxPoint x="190" y="150" as="sourcePoint" />
            <mxPoint x="250" y="150" as="targetPoint" />
          </mxGeometry>
        </mxCell>
        <mxCell id="cr33_lq19UA9OvymUHb6-71" value="" style="group" vertex="1" connectable="0" parent="1">
          <mxGeometry x="160" y="300" width="100" height="90" as="geometry" />
        </mxCell>
        <mxCell id="cr33_lq19UA9OvymUHb6-69" value="" style="aspect=fixed;perimeter=ellipsePerimeter;html=1;align=center;shadow=0;dashed=0;fontColor=#4277BB;labelBackgroundColor=#ffffff;fontSize=12;spacingTop=3;image;image=img/lib/ibm/management/push_notifications.svg;" vertex="1" parent="cr33_lq19UA9OvymUHb6-71">
          <mxGeometry x="20" y="30" width="60" height="60" as="geometry" />
        </mxCell>
        <mxCell id="cr33_lq19UA9OvymUHb6-70" value="PubSubHubbub" style="text;html=1;align=center;verticalAlign=middle;resizable=0;points=[];autosize=1;" vertex="1" parent="cr33_lq19UA9OvymUHb6-71">
          <mxGeometry width="100" height="20" as="geometry" />
        </mxCell>
        <mxCell id="cr33_lq19UA9OvymUHb6-72" value="" style="group" vertex="1" connectable="0" parent="1">
          <mxGeometry x="50" y="160" width="60" height="90" as="geometry" />
        </mxCell>
        <mxCell id="cr33_lq19UA9OvymUHb6-63" value="" style="aspect=fixed;perimeter=ellipsePerimeter;html=1;align=center;shadow=0;dashed=0;fontColor=#4277BB;labelBackgroundColor=#ffffff;fontSize=12;spacingTop=3;image;image=img/lib/ibm/infrastructure/channels.svg;" vertex="1" parent="cr33_lq19UA9OvymUHb6-72">
          <mxGeometry y="30" width="60" height="60" as="geometry" />
        </mxCell>
        <mxCell id="cr33_lq19UA9OvymUHb6-64" value="Youtube" style="text;html=1;align=center;verticalAlign=middle;resizable=0;points=[];autosize=1;" vertex="1" parent="cr33_lq19UA9OvymUHb6-72">
          <mxGeometry width="60" height="20" as="geometry" />
        </mxCell>
        <mxCell id="cr33_lq19UA9OvymUHb6-73" value="" style="group" vertex="1" connectable="0" parent="1">
          <mxGeometry x="950" y="160" width="70" height="90" as="geometry" />
        </mxCell>
        <mxCell id="cr33_lq19UA9OvymUHb6-67" value="" style="aspect=fixed;perimeter=ellipsePerimeter;html=1;align=center;shadow=0;dashed=0;fontColor=#4277BB;labelBackgroundColor=#ffffff;fontSize=12;spacingTop=3;image;image=img/lib/ibm/infrastructure/dashboard.svg;" vertex="1" parent="cr33_lq19UA9OvymUHb6-73">
          <mxGeometry x="5" y="30" width="60" height="60" as="geometry" />
        </mxCell>
        <mxCell id="cr33_lq19UA9OvymUHb6-68" value="Dashboard" style="text;html=1;align=center;verticalAlign=middle;resizable=0;points=[];autosize=1;" vertex="1" parent="cr33_lq19UA9OvymUHb6-73">
          <mxGeometry width="70" height="20" as="geometry" />
        </mxCell>
        <mxCell id="cr33_lq19UA9OvymUHb6-74" value="" style="html=1;labelBackgroundColor=#ffffff;endArrow=classic;endFill=1;endSize=6;jettySize=auto;orthogonalLoop=1;strokeWidth=1;fontSize=14;entryX=0;entryY=0.25;entryDx=0;entryDy=0;exitX=0.75;exitY=1;exitDx=0;exitDy=0;" edge="1" parent="1" source="cr33_lq19UA9OvymUHb6-63" target="cr33_lq19UA9OvymUHb6-69">
          <mxGeometry width="60" height="60" relative="1" as="geometry">
            <mxPoint x="90" y="240" as="sourcePoint" />
            <mxPoint x="140" y="340" as="targetPoint" />
          </mxGeometry>
        </mxCell>
        <mxCell id="cr33_lq19UA9OvymUHb6-77" value="" style="html=1;labelBackgroundColor=#ffffff;endArrow=classic;endFill=1;endSize=6;jettySize=auto;orthogonalLoop=1;strokeWidth=1;fontSize=14;exitX=1;exitY=0.5;exitDx=0;exitDy=0;entryX=0;entryY=0.5;entryDx=0;entryDy=0;" edge="1" parent="1" source="cr33_lq19UA9OvymUHb6-69" target="cr33_lq19UA9OvymUHb6-75">
          <mxGeometry width="60" height="60" relative="1" as="geometry">
            <mxPoint x="600" y="380" as="sourcePoint" />
            <mxPoint x="320" y="360" as="targetPoint" />
          </mxGeometry>
        </mxCell>
        <mxCell id="cr33_lq19UA9OvymUHb6-80" value="" style="html=1;labelBackgroundColor=#ffffff;endArrow=classic;endFill=1;endSize=6;jettySize=auto;orthogonalLoop=1;strokeWidth=1;fontSize=14;exitX=1;exitY=0.5;exitDx=0;exitDy=0;" edge="1" parent="1" source="cr33_lq19UA9OvymUHb6-75">
          <mxGeometry width="60" height="60" relative="1" as="geometry">
            <mxPoint x="600" y="380" as="sourcePoint" />
            <mxPoint x="440" y="360" as="targetPoint" />
          </mxGeometry>
        </mxCell>
        <mxCell id="cr33_lq19UA9OvymUHb6-84" value="" style="aspect=fixed;perimeter=ellipsePerimeter;html=1;align=center;shadow=0;dashed=0;fontColor=#4277BB;labelBackgroundColor=#ffffff;fontSize=12;spacingTop=3;image;image=img/lib/ibm/data/data_services.svg;" vertex="1" parent="1">
          <mxGeometry x="810" y="190" width="60" height="60" as="geometry" />
        </mxCell>
        <mxCell id="cr33_lq19UA9OvymUHb6-85" value="" style="html=1;labelBackgroundColor=#ffffff;endArrow=classic;endFill=1;endSize=6;jettySize=auto;orthogonalLoop=1;strokeWidth=1;fontSize=14;entryX=0;entryY=0.5;entryDx=0;entryDy=0;exitX=1;exitY=0.5;exitDx=0;exitDy=0;" edge="1" parent="1" source="cr33_lq19UA9OvymUHb6-84" target="cr33_lq19UA9OvymUHb6-67">
          <mxGeometry width="60" height="60" relative="1" as="geometry">
            <mxPoint x="590" y="250" as="sourcePoint" />
            <mxPoint x="650" y="190" as="targetPoint" />
          </mxGeometry>
        </mxCell>
        <mxCell id="cr33_lq19UA9OvymUHb6-104" value="" style="html=1;labelBackgroundColor=#ffffff;endArrow=classic;endFill=1;endSize=6;jettySize=auto;orthogonalLoop=1;strokeWidth=1;fontSize=14;exitX=1;exitY=0.5;exitDx=0;exitDy=0;entryX=0;entryY=0.5;entryDx=0;entryDy=0;" edge="1" parent="1" source="cr33_lq19UA9OvymUHb6-96" target="cr33_lq19UA9OvymUHb6-84">
          <mxGeometry width="60" height="60" relative="1" as="geometry">
            <mxPoint x="710" y="350" as="sourcePoint" />
            <mxPoint x="770" y="290" as="targetPoint" />
          </mxGeometry>
        </mxCell>
        <mxCell id="cr33_lq19UA9OvymUHb6-105" value="" style="html=1;labelBackgroundColor=#ffffff;endArrow=classic;endFill=1;endSize=6;jettySize=auto;orthogonalLoop=1;strokeWidth=1;fontSize=14;exitX=1;exitY=0.5;exitDx=0;exitDy=0;entryX=0;entryY=0.5;entryDx=0;entryDy=0;" edge="1" parent="1" source="cr33_lq19UA9OvymUHb6-94" target="cr33_lq19UA9OvymUHb6-84">
          <mxGeometry width="60" height="60" relative="1" as="geometry">
            <mxPoint x="650" y="170" as="sourcePoint" />
            <mxPoint x="790" y="70" as="targetPoint" />
          </mxGeometry>
        </mxCell>
        <mxCell id="cr33_lq19UA9OvymUHb6-106" value="" style="html=1;labelBackgroundColor=#ffffff;endArrow=classic;endFill=1;endSize=6;jettySize=auto;orthogonalLoop=1;strokeWidth=1;fontSize=14;exitX=1;exitY=0;exitDx=0;exitDy=0;entryX=0;entryY=0.5;entryDx=0;entryDy=0;" edge="1" parent="1" source="cr33_lq19UA9OvymUHb6-63" target="cr33_lq19UA9OvymUHb6-88">
          <mxGeometry width="60" height="60" relative="1" as="geometry">
            <mxPoint x="600" y="200" as="sourcePoint" />
            <mxPoint x="660" y="140" as="targetPoint" />
          </mxGeometry>
        </mxCell>
        <mxCell id="cr33_lq19UA9OvymUHb6-101" value="" style="html=1;labelBackgroundColor=#ffffff;endArrow=classic;endFill=1;endSize=6;jettySize=auto;orthogonalLoop=1;strokeWidth=1;fontSize=14;exitX=1;exitY=0.5;exitDx=0;exitDy=0;entryX=0;entryY=0.5;entryDx=0;entryDy=0;" edge="1" parent="1" source="cr33_lq19UA9OvymUHb6-92" target="cr33_lq19UA9OvymUHb6-94">
          <mxGeometry x="380" y="30" width="60" height="60" as="geometry">
            <mxPoint x="450" y="60" as="sourcePoint" />
            <mxPoint x="510" as="targetPoint" />
          </mxGeometry>
        </mxCell>
        <mxCell id="cr33_lq19UA9OvymUHb6-100" value="" style="group" vertex="1" connectable="0" parent="1">
          <mxGeometry x="620" y="30" width="60" height="90" as="geometry" />
        </mxCell>
        <mxCell id="cr33_lq19UA9OvymUHb6-94" value="" style="aspect=fixed;perimeter=ellipsePerimeter;html=1;align=center;shadow=0;dashed=0;fontColor=#4277BB;labelBackgroundColor=#ffffff;fontSize=12;spacingTop=3;image;image=img/lib/ibm/infrastructure/transformation_connectivity.svg;" vertex="1" parent="cr33_lq19UA9OvymUHb6-100">
          <mxGeometry y="30" width="60" height="60" as="geometry" />
        </mxCell>
        <mxCell id="cr33_lq19UA9OvymUHb6-95" value="spark?" style="text;html=1;align=center;verticalAlign=middle;resizable=0;points=[];autosize=1;" vertex="1" parent="cr33_lq19UA9OvymUHb6-100">
          <mxGeometry x="5" width="50" height="20" as="geometry" />
        </mxCell>
      </root>
    </mxGraphModel>
  </diagram>
</mxfile>
